<mxfile host="app.diagrams.net" modified="2022-06-30T02:25:41.071Z" agent="5.0 (Macintosh)" etag="rpA_fxJdt5CoTWIrxBOD" version="20.0.3" type="github">
  <diagram id="UnpPWpCCMpY3kTgUmqGS" name="Page-1">
    <mxGraphModel dx="2066" dy="2196" grid="1" gridSize="10" guides="1" tooltips="1" connect="1" arrows="1" fold="1" page="1" pageScale="1" pageWidth="850" pageHeight="1100" math="0" shadow="0">
      <root>
        <mxCell id="0" />
        <mxCell id="1" parent="0" />
        <mxCell id="0VU86SbnEcJsQg7m3qkY-6" value="" style="rounded=0;whiteSpace=wrap;html=1;fillColor=#fff2cc;strokeColor=#d6b656;" vertex="1" parent="1">
          <mxGeometry x="360" y="280" width="870" height="490" as="geometry" />
        </mxCell>
        <mxCell id="0VU86SbnEcJsQg7m3qkY-2" value="" style="rounded=0;whiteSpace=wrap;html=1;fillColor=#dae8fc;strokeColor=#6c8ebf;" vertex="1" parent="1">
          <mxGeometry x="460" y="300" width="720" height="346" as="geometry" />
        </mxCell>
        <mxCell id="AmY7bIzJTpSbqmhme9mH-7" value="" style="rounded=0;whiteSpace=wrap;html=1;" parent="1" vertex="1">
          <mxGeometry x="494" y="-80" width="650" height="310" as="geometry" />
        </mxCell>
        <mxCell id="AmY7bIzJTpSbqmhme9mH-2" value="" style="rounded=0;whiteSpace=wrap;html=1;" parent="1" vertex="1">
          <mxGeometry x="120" y="260" width="150" height="520" as="geometry" />
        </mxCell>
        <mxCell id="0VU86SbnEcJsQg7m3qkY-12" style="edgeStyle=orthogonalEdgeStyle;rounded=0;orthogonalLoop=1;jettySize=auto;html=1;entryX=0;entryY=0.5;entryDx=0;entryDy=0;" edge="1" parent="1" source="AmY7bIzJTpSbqmhme9mH-3" target="0VU86SbnEcJsQg7m3qkY-4">
          <mxGeometry relative="1" as="geometry" />
        </mxCell>
        <mxCell id="0VU86SbnEcJsQg7m3qkY-14" style="edgeStyle=orthogonalEdgeStyle;rounded=0;orthogonalLoop=1;jettySize=auto;html=1;entryX=0;entryY=0.5;entryDx=0;entryDy=0;" edge="1" parent="1" source="AmY7bIzJTpSbqmhme9mH-3" target="0VU86SbnEcJsQg7m3qkY-5">
          <mxGeometry relative="1" as="geometry">
            <Array as="points">
              <mxPoint x="320" y="380" />
              <mxPoint x="320" y="705" />
            </Array>
          </mxGeometry>
        </mxCell>
        <mxCell id="AmY7bIzJTpSbqmhme9mH-3" value="event.fdz" style="sketch=0;points=[[0,0,0],[0.25,0,0],[0.5,0,0],[0.75,0,0],[1,0,0],[0,1,0],[0.25,1,0],[0.5,1,0],[0.75,1,0],[1,1,0],[0,0.25,0],[0,0.5,0],[0,0.75,0],[1,0.25,0],[1,0.5,0],[1,0.75,0]];outlineConnect=0;fontColor=#232F3E;gradientColor=#60A337;gradientDirection=north;fillColor=#277116;strokeColor=#ffffff;dashed=0;verticalLabelPosition=bottom;verticalAlign=top;align=center;html=1;fontSize=12;fontStyle=0;aspect=fixed;shape=mxgraph.aws4.resourceIcon;resIcon=mxgraph.aws4.s3;" parent="1" vertex="1">
          <mxGeometry x="156" y="326" width="78" height="78" as="geometry" />
        </mxCell>
        <mxCell id="AmY7bIzJTpSbqmhme9mH-4" value="FDP Storage" style="text;html=1;strokeColor=none;fillColor=none;align=center;verticalAlign=middle;whiteSpace=wrap;rounded=0;" parent="1" vertex="1">
          <mxGeometry x="140" y="230" width="110" height="30" as="geometry" />
        </mxCell>
        <mxCell id="0VU86SbnEcJsQg7m3qkY-13" style="edgeStyle=orthogonalEdgeStyle;rounded=0;orthogonalLoop=1;jettySize=auto;html=1;jumpStyle=sharp;" edge="1" parent="1" source="AmY7bIzJTpSbqmhme9mH-5" target="0VU86SbnEcJsQg7m3qkY-3">
          <mxGeometry relative="1" as="geometry" />
        </mxCell>
        <mxCell id="AmY7bIzJTpSbqmhme9mH-5" value="item.json.gz" style="sketch=0;points=[[0,0,0],[0.25,0,0],[0.5,0,0],[0.75,0,0],[1,0,0],[0,1,0],[0.25,1,0],[0.5,1,0],[0.75,1,0],[1,1,0],[0,0.25,0],[0,0.5,0],[0,0.75,0],[1,0.25,0],[1,0.5,0],[1,0.75,0]];outlineConnect=0;fontColor=#232F3E;gradientColor=#60A337;gradientDirection=north;fillColor=#277116;strokeColor=#ffffff;dashed=0;verticalLabelPosition=bottom;verticalAlign=top;align=center;html=1;fontSize=12;fontStyle=0;aspect=fixed;shape=mxgraph.aws4.resourceIcon;resIcon=mxgraph.aws4.s3;" parent="1" vertex="1">
          <mxGeometry x="156" y="436" width="78" height="78" as="geometry" />
        </mxCell>
        <mxCell id="0VU86SbnEcJsQg7m3qkY-15" style="edgeStyle=orthogonalEdgeStyle;rounded=0;orthogonalLoop=1;jettySize=auto;html=1;entryX=0;entryY=0.5;entryDx=0;entryDy=0;jumpStyle=sharp;" edge="1" parent="1" source="AmY7bIzJTpSbqmhme9mH-6" target="AmY7bIzJTpSbqmhme9mH-76">
          <mxGeometry relative="1" as="geometry" />
        </mxCell>
        <mxCell id="AmY7bIzJTpSbqmhme9mH-6" value="other.format" style="sketch=0;points=[[0,0,0],[0.25,0,0],[0.5,0,0],[0.75,0,0],[1,0,0],[0,1,0],[0.25,1,0],[0.5,1,0],[0.75,1,0],[1,1,0],[0,0.25,0],[0,0.5,0],[0,0.75,0],[1,0.25,0],[1,0.5,0],[1,0.75,0]];outlineConnect=0;fontColor=#232F3E;gradientColor=#60A337;gradientDirection=north;fillColor=#277116;strokeColor=#ffffff;dashed=0;verticalLabelPosition=bottom;verticalAlign=top;align=center;html=1;fontSize=12;fontStyle=0;aspect=fixed;shape=mxgraph.aws4.resourceIcon;resIcon=mxgraph.aws4.s3;" parent="1" vertex="1">
          <mxGeometry x="156" y="640" width="78" height="78" as="geometry" />
        </mxCell>
        <mxCell id="AmY7bIzJTpSbqmhme9mH-81" style="edgeStyle=orthogonalEdgeStyle;rounded=0;orthogonalLoop=1;jettySize=auto;html=1;entryX=0.5;entryY=1;entryDx=0;entryDy=0;" parent="1" source="AmY7bIzJTpSbqmhme9mH-8" target="AmY7bIzJTpSbqmhme9mH-9" edge="1">
          <mxGeometry relative="1" as="geometry" />
        </mxCell>
        <mxCell id="AmY7bIzJTpSbqmhme9mH-82" style="edgeStyle=orthogonalEdgeStyle;rounded=0;orthogonalLoop=1;jettySize=auto;html=1;entryX=0;entryY=0.5;entryDx=0;entryDy=0;" parent="1" source="AmY7bIzJTpSbqmhme9mH-8" target="AmY7bIzJTpSbqmhme9mH-39" edge="1">
          <mxGeometry relative="1" as="geometry" />
        </mxCell>
        <mxCell id="AmY7bIzJTpSbqmhme9mH-8" value="Index in ES" style="sketch=0;points=[[0,0,0],[0.25,0,0],[0.5,0,0],[0.75,0,0],[1,0,0],[0,1,0],[0.25,1,0],[0.5,1,0],[0.75,1,0],[1,1,0],[0,0.25,0],[0,0.5,0],[0,0.75,0],[1,0.25,0],[1,0.5,0],[1,0.75,0]];outlineConnect=0;fontColor=#232F3E;gradientColor=#945DF2;gradientDirection=north;fillColor=#5A30B5;strokeColor=#ffffff;dashed=0;verticalLabelPosition=bottom;verticalAlign=top;align=center;html=1;fontSize=12;fontStyle=0;aspect=fixed;shape=mxgraph.aws4.resourceIcon;resIcon=mxgraph.aws4.elasticsearch_service;" parent="1" vertex="1">
          <mxGeometry x="864" y="26" width="78" height="78" as="geometry" />
        </mxCell>
        <mxCell id="AmY7bIzJTpSbqmhme9mH-34" value="" style="group;fillColor=#DAE8FC;strokeColor=#6c8ebf;" parent="1" vertex="1" connectable="0">
          <mxGeometry x="514" y="30" width="310" height="70" as="geometry" />
        </mxCell>
        <mxCell id="AmY7bIzJTpSbqmhme9mH-28" value="" style="rounded=0;whiteSpace=wrap;html=1;fillColor=#99CCFF;" parent="AmY7bIzJTpSbqmhme9mH-34" vertex="1">
          <mxGeometry width="310" height="70" as="geometry" />
        </mxCell>
        <mxCell id="AmY7bIzJTpSbqmhme9mH-13" value="" style="sketch=0;points=[[0,0,0],[0.25,0,0],[0.5,0,0],[0.75,0,0],[1,0,0],[0,1,0],[0.25,1,0],[0.5,1,0],[0.75,1,0],[1,1,0],[0,0.25,0],[0,0.5,0],[0,0.75,0],[1,0.25,0],[1,0.5,0],[1,0.75,0]];outlineConnect=0;fontColor=#232F3E;gradientColor=#FF4F8B;gradientDirection=north;fillColor=#BC1356;strokeColor=#ffffff;dashed=0;verticalLabelPosition=bottom;verticalAlign=top;align=center;html=1;fontSize=12;fontStyle=0;aspect=fixed;shape=mxgraph.aws4.resourceIcon;resIcon=mxgraph.aws4.sqs;" parent="AmY7bIzJTpSbqmhme9mH-34" vertex="1">
          <mxGeometry x="120" y="5" width="60" height="60" as="geometry" />
        </mxCell>
        <mxCell id="AmY7bIzJTpSbqmhme9mH-29" value="Index Definition" style="rounded=1;whiteSpace=wrap;html=1;" parent="AmY7bIzJTpSbqmhme9mH-34" vertex="1">
          <mxGeometry x="15" y="10" width="95" height="20" as="geometry" />
        </mxCell>
        <mxCell id="AmY7bIzJTpSbqmhme9mH-30" value="Index Client" style="rounded=1;whiteSpace=wrap;html=1;" parent="AmY7bIzJTpSbqmhme9mH-34" vertex="1">
          <mxGeometry x="15" y="40" width="95" height="20" as="geometry" />
        </mxCell>
        <mxCell id="AmY7bIzJTpSbqmhme9mH-32" value="" style="sketch=0;points=[[0,0,0],[0.25,0,0],[0.5,0,0],[0.75,0,0],[1,0,0],[0,1,0],[0.25,1,0],[0.5,1,0],[0.75,1,0],[1,1,0],[0,0.25,0],[0,0.5,0],[0,0.75,0],[1,0.25,0],[1,0.5,0],[1,0.75,0]];outlineConnect=0;fontColor=#232F3E;gradientColor=#F78E04;gradientDirection=north;fillColor=#D05C17;strokeColor=#ffffff;dashed=0;verticalLabelPosition=bottom;verticalAlign=top;align=center;html=1;fontSize=12;fontStyle=0;aspect=fixed;shape=mxgraph.aws4.resourceIcon;resIcon=mxgraph.aws4.lambda;" parent="AmY7bIzJTpSbqmhme9mH-34" vertex="1">
          <mxGeometry x="190" y="5" width="60" height="60" as="geometry" />
        </mxCell>
        <mxCell id="AmY7bIzJTpSbqmhme9mH-33" value="Index Builder" style="text;html=1;strokeColor=none;fillColor=none;align=center;verticalAlign=middle;whiteSpace=wrap;rounded=0;" parent="AmY7bIzJTpSbqmhme9mH-34" vertex="1">
          <mxGeometry x="250" y="20" width="60" height="30" as="geometry" />
        </mxCell>
        <mxCell id="AmY7bIzJTpSbqmhme9mH-36" value="" style="group;fillColor=#dae8fc;strokeColor=#6c8ebf;" parent="1" vertex="1" connectable="0">
          <mxGeometry x="748" y="-70" width="310" height="70" as="geometry" />
        </mxCell>
        <mxCell id="AmY7bIzJTpSbqmhme9mH-9" value="" style="rounded=0;whiteSpace=wrap;html=1;fillColor=#99CCFF;" parent="AmY7bIzJTpSbqmhme9mH-36" vertex="1">
          <mxGeometry width="310" height="70" as="geometry" />
        </mxCell>
        <mxCell id="AmY7bIzJTpSbqmhme9mH-10" value="Index Definition" style="rounded=1;whiteSpace=wrap;html=1;" parent="AmY7bIzJTpSbqmhme9mH-36" vertex="1">
          <mxGeometry x="15" y="10" width="95" height="20" as="geometry" />
        </mxCell>
        <mxCell id="AmY7bIzJTpSbqmhme9mH-11" value="Index Client" style="rounded=1;whiteSpace=wrap;html=1;" parent="AmY7bIzJTpSbqmhme9mH-36" vertex="1">
          <mxGeometry x="15" y="40" width="95" height="20" as="geometry" />
        </mxCell>
        <mxCell id="AmY7bIzJTpSbqmhme9mH-12" value="" style="sketch=0;points=[[0,0,0],[0.25,0,0],[0.5,0,0],[0.75,0,0],[1,0,0],[0,1,0],[0.25,1,0],[0.5,1,0],[0.75,1,0],[1,1,0],[0,0.25,0],[0,0.5,0],[0,0.75,0],[1,0.25,0],[1,0.5,0],[1,0.75,0]];points=[[0,0,0],[0.25,0,0],[0.5,0,0],[0.75,0,0],[1,0,0],[0,1,0],[0.25,1,0],[0.5,1,0],[0.75,1,0],[1,1,0],[0,0.25,0],[0,0.5,0],[0,0.75,0],[1,0.25,0],[1,0.5,0],[1,0.75,0]];outlineConnect=0;fontColor=#232F3E;gradientColor=#F34482;gradientDirection=north;fillColor=#BC1356;strokeColor=#ffffff;dashed=0;verticalLabelPosition=bottom;verticalAlign=top;align=center;html=1;fontSize=12;fontStyle=0;aspect=fixed;shape=mxgraph.aws4.resourceIcon;resIcon=mxgraph.aws4.cloudwatch_2;" parent="AmY7bIzJTpSbqmhme9mH-36" vertex="1">
          <mxGeometry x="119" y="5" width="60" height="60" as="geometry" />
        </mxCell>
        <mxCell id="AmY7bIzJTpSbqmhme9mH-14" value="" style="sketch=0;points=[[0,0,0],[0.25,0,0],[0.5,0,0],[0.75,0,0],[1,0,0],[0,1,0],[0.25,1,0],[0.5,1,0],[0.75,1,0],[1,1,0],[0,0.25,0],[0,0.5,0],[0,0.75,0],[1,0.25,0],[1,0.5,0],[1,0.75,0]];outlineConnect=0;fontColor=#232F3E;gradientColor=#F78E04;gradientDirection=north;fillColor=#D05C17;strokeColor=#ffffff;dashed=0;verticalLabelPosition=bottom;verticalAlign=top;align=center;html=1;fontSize=12;fontStyle=0;aspect=fixed;shape=mxgraph.aws4.resourceIcon;resIcon=mxgraph.aws4.lambda;" parent="AmY7bIzJTpSbqmhme9mH-36" vertex="1">
          <mxGeometry x="190" y="5" width="60" height="60" as="geometry" />
        </mxCell>
        <mxCell id="AmY7bIzJTpSbqmhme9mH-15" value="Index Integrity" style="text;html=1;strokeColor=none;fillColor=none;align=center;verticalAlign=middle;whiteSpace=wrap;rounded=0;" parent="AmY7bIzJTpSbqmhme9mH-36" vertex="1">
          <mxGeometry x="250" y="20" width="60" height="30" as="geometry" />
        </mxCell>
        <mxCell id="AmY7bIzJTpSbqmhme9mH-40" value="" style="group;fillColor=#dae8fc;strokeColor=#6c8ebf;" parent="1" vertex="1" connectable="0">
          <mxGeometry x="1004" y="35" width="120" height="60" as="geometry" />
        </mxCell>
        <mxCell id="AmY7bIzJTpSbqmhme9mH-39" value="" style="rounded=0;whiteSpace=wrap;html=1;fillColor=#99CCFF;" parent="AmY7bIzJTpSbqmhme9mH-40" vertex="1">
          <mxGeometry width="120" height="60" as="geometry" />
        </mxCell>
        <mxCell id="AmY7bIzJTpSbqmhme9mH-37" value="Index Definition" style="rounded=1;whiteSpace=wrap;html=1;" parent="AmY7bIzJTpSbqmhme9mH-40" vertex="1">
          <mxGeometry x="12.5" y="5" width="95" height="20" as="geometry" />
        </mxCell>
        <mxCell id="AmY7bIzJTpSbqmhme9mH-38" value="Index Client" style="rounded=1;whiteSpace=wrap;html=1;" parent="AmY7bIzJTpSbqmhme9mH-40" vertex="1">
          <mxGeometry x="12.5" y="35" width="95" height="20" as="geometry" />
        </mxCell>
        <mxCell id="AmY7bIzJTpSbqmhme9mH-43" style="edgeStyle=orthogonalEdgeStyle;rounded=0;orthogonalLoop=1;jettySize=auto;html=1;entryX=0;entryY=0.5;entryDx=0;entryDy=0;entryPerimeter=0;" parent="1" source="AmY7bIzJTpSbqmhme9mH-28" target="AmY7bIzJTpSbqmhme9mH-8" edge="1">
          <mxGeometry relative="1" as="geometry" />
        </mxCell>
        <mxCell id="AmY7bIzJTpSbqmhme9mH-91" style="edgeStyle=orthogonalEdgeStyle;rounded=0;orthogonalLoop=1;jettySize=auto;html=1;entryX=0.5;entryY=1;entryDx=0;entryDy=0;entryPerimeter=0;" parent="1" source="AmY7bIzJTpSbqmhme9mH-76" target="AmY7bIzJTpSbqmhme9mH-87" edge="1">
          <mxGeometry relative="1" as="geometry" />
        </mxCell>
        <mxCell id="AmY7bIzJTpSbqmhme9mH-76" value="Other index" style="rounded=0;whiteSpace=wrap;html=1;" parent="1" vertex="1">
          <mxGeometry x="495" y="538" width="650" height="70" as="geometry" />
        </mxCell>
        <mxCell id="AmY7bIzJTpSbqmhme9mH-83" style="edgeStyle=orthogonalEdgeStyle;rounded=0;orthogonalLoop=1;jettySize=auto;html=1;entryX=0;entryY=1;entryDx=0;entryDy=0;entryPerimeter=0;dashed=1;" parent="1" source="AmY7bIzJTpSbqmhme9mH-16" target="AmY7bIzJTpSbqmhme9mH-8" edge="1">
          <mxGeometry relative="1" as="geometry">
            <Array as="points">
              <mxPoint x="864" y="130" />
              <mxPoint x="864" y="130" />
            </Array>
          </mxGeometry>
        </mxCell>
        <mxCell id="AmY7bIzJTpSbqmhme9mH-87" value="APIs " style="sketch=0;points=[[0,0,0],[0.25,0,0],[0.5,0,0],[0.75,0,0],[1,0,0],[0,1,0],[0.25,1,0],[0.5,1,0],[0.75,1,0],[1,1,0],[0,0.25,0],[0,0.5,0],[0,0.75,0],[1,0.25,0],[1,0.5,0],[1,0.75,0]];outlineConnect=0;fontColor=#232F3E;gradientColor=#F78E04;gradientDirection=north;fillColor=#D05C17;strokeColor=#ffffff;dashed=0;verticalLabelPosition=middle;verticalAlign=middle;align=left;html=1;fontSize=12;fontStyle=0;aspect=fixed;shape=mxgraph.aws4.resourceIcon;resIcon=mxgraph.aws4.fargate;labelPosition=right;" parent="1" vertex="1">
          <mxGeometry x="1400" y="472" width="78" height="78" as="geometry" />
        </mxCell>
        <mxCell id="AmY7bIzJTpSbqmhme9mH-93" value="FDP Index" style="text;html=1;strokeColor=none;fillColor=none;align=center;verticalAlign=middle;whiteSpace=wrap;rounded=0;" parent="1" vertex="1">
          <mxGeometry x="380" y="740" width="60" height="30" as="geometry" />
        </mxCell>
        <mxCell id="AmY7bIzJTpSbqmhme9mH-94" value="Transaction Index" style="text;html=1;strokeColor=none;fillColor=none;align=center;verticalAlign=middle;whiteSpace=wrap;rounded=0;" parent="1" vertex="1">
          <mxGeometry x="514" y="-70" width="110" height="30" as="geometry" />
        </mxCell>
        <mxCell id="AmY7bIzJTpSbqmhme9mH-97" value="Data flow" style="endArrow=classic;html=1;rounded=0;" parent="1" edge="1">
          <mxGeometry width="50" height="50" relative="1" as="geometry">
            <mxPoint x="1561" y="960" as="sourcePoint" />
            <mxPoint x="1661" y="960" as="targetPoint" />
          </mxGeometry>
        </mxCell>
        <mxCell id="AmY7bIzJTpSbqmhme9mH-99" value="Index Infrastructure" style="rounded=0;whiteSpace=wrap;html=1;fillColor=#dae8fc;strokeColor=#6c8ebf;" parent="1" vertex="1">
          <mxGeometry x="1560" y="1000" width="100" height="40" as="geometry" />
        </mxCell>
        <mxCell id="AmY7bIzJTpSbqmhme9mH-101" value="Control flow" style="endArrow=classic;html=1;rounded=0;dashed=1;" parent="1" edge="1">
          <mxGeometry width="50" height="50" relative="1" as="geometry">
            <mxPoint x="1560" y="984.5" as="sourcePoint" />
            <mxPoint x="1660" y="984.5" as="targetPoint" />
          </mxGeometry>
        </mxCell>
        <mxCell id="AmY7bIzJTpSbqmhme9mH-102" value="FDP index layer" style="rounded=0;whiteSpace=wrap;html=1;fillColor=#fff2cc;strokeColor=#d6b656;" parent="1" vertex="1">
          <mxGeometry x="1560" y="1050" width="100" height="40" as="geometry" />
        </mxCell>
        <mxCell id="AmY7bIzJTpSbqmhme9mH-103" value="Java lib" style="rounded=1;whiteSpace=wrap;html=1;" parent="1" vertex="1">
          <mxGeometry x="1560" y="1102" width="100" height="28" as="geometry" />
        </mxCell>
        <mxCell id="TYjZyWuM7NEB447WBAGi-4" value="" style="group;fillColor=#DAE8FC;strokeColor=#6c8ebf;" parent="1" vertex="1" connectable="0">
          <mxGeometry x="754" y="140" width="220" height="70" as="geometry" />
        </mxCell>
        <mxCell id="AmY7bIzJTpSbqmhme9mH-16" value="" style="rounded=0;whiteSpace=wrap;html=1;fillColor=#99CCFF;" parent="TYjZyWuM7NEB447WBAGi-4" vertex="1">
          <mxGeometry width="220" height="70" as="geometry" />
        </mxCell>
        <mxCell id="AmY7bIzJTpSbqmhme9mH-19" value="" style="sketch=0;points=[[0,0,0],[0.25,0,0],[0.5,0,0],[0.75,0,0],[1,0,0],[0,1,0],[0.25,1,0],[0.5,1,0],[0.75,1,0],[1,1,0],[0,0.25,0],[0,0.5,0],[0,0.75,0],[1,0.25,0],[1,0.5,0],[1,0.75,0]];points=[[0,0,0],[0.25,0,0],[0.5,0,0],[0.75,0,0],[1,0,0],[0,1,0],[0.25,1,0],[0.5,1,0],[0.75,1,0],[1,1,0],[0,0.25,0],[0,0.5,0],[0,0.75,0],[1,0.25,0],[1,0.5,0],[1,0.75,0]];outlineConnect=0;fontColor=#232F3E;gradientColor=#F34482;gradientDirection=north;fillColor=#BC1356;strokeColor=#ffffff;dashed=0;verticalLabelPosition=bottom;verticalAlign=top;align=center;html=1;fontSize=12;fontStyle=0;aspect=fixed;shape=mxgraph.aws4.resourceIcon;resIcon=mxgraph.aws4.cloudwatch_2;" parent="TYjZyWuM7NEB447WBAGi-4" vertex="1">
          <mxGeometry x="29" y="5" width="60" height="60" as="geometry" />
        </mxCell>
        <mxCell id="AmY7bIzJTpSbqmhme9mH-20" value="" style="sketch=0;points=[[0,0,0],[0.25,0,0],[0.5,0,0],[0.75,0,0],[1,0,0],[0,1,0],[0.25,1,0],[0.5,1,0],[0.75,1,0],[1,1,0],[0,0.25,0],[0,0.5,0],[0,0.75,0],[1,0.25,0],[1,0.5,0],[1,0.75,0]];outlineConnect=0;fontColor=#232F3E;gradientColor=#F78E04;gradientDirection=north;fillColor=#D05C17;strokeColor=#ffffff;dashed=0;verticalLabelPosition=bottom;verticalAlign=top;align=center;html=1;fontSize=12;fontStyle=0;aspect=fixed;shape=mxgraph.aws4.resourceIcon;resIcon=mxgraph.aws4.lambda;" parent="TYjZyWuM7NEB447WBAGi-4" vertex="1">
          <mxGeometry x="100" y="5" width="60" height="60" as="geometry" />
        </mxCell>
        <mxCell id="AmY7bIzJTpSbqmhme9mH-21" value="Index Manager" style="text;html=1;strokeColor=none;fillColor=none;align=center;verticalAlign=middle;whiteSpace=wrap;rounded=0;" parent="TYjZyWuM7NEB447WBAGi-4" vertex="1">
          <mxGeometry x="160" y="20" width="60" height="30" as="geometry" />
        </mxCell>
        <mxCell id="0VU86SbnEcJsQg7m3qkY-10" style="edgeStyle=orthogonalEdgeStyle;rounded=0;orthogonalLoop=1;jettySize=auto;html=1;entryX=0;entryY=0.5;entryDx=0;entryDy=0;entryPerimeter=0;" edge="1" parent="1" source="0VU86SbnEcJsQg7m3qkY-3" target="AmY7bIzJTpSbqmhme9mH-87">
          <mxGeometry relative="1" as="geometry" />
        </mxCell>
        <mxCell id="0VU86SbnEcJsQg7m3qkY-3" value="New item index" style="rounded=0;whiteSpace=wrap;html=1;" vertex="1" parent="1">
          <mxGeometry x="495" y="440" width="650" height="70" as="geometry" />
        </mxCell>
        <mxCell id="0VU86SbnEcJsQg7m3qkY-9" style="edgeStyle=orthogonalEdgeStyle;rounded=0;orthogonalLoop=1;jettySize=auto;html=1;entryX=0.5;entryY=0;entryDx=0;entryDy=0;entryPerimeter=0;" edge="1" parent="1" source="0VU86SbnEcJsQg7m3qkY-4" target="AmY7bIzJTpSbqmhme9mH-87">
          <mxGeometry relative="1" as="geometry" />
        </mxCell>
        <mxCell id="0VU86SbnEcJsQg7m3qkY-4" value="New transaction index" style="rounded=0;whiteSpace=wrap;html=1;" vertex="1" parent="1">
          <mxGeometry x="495" y="330" width="650" height="70" as="geometry" />
        </mxCell>
        <mxCell id="0VU86SbnEcJsQg7m3qkY-7" style="edgeStyle=orthogonalEdgeStyle;rounded=0;orthogonalLoop=1;jettySize=auto;html=1;entryX=0.5;entryY=1;entryDx=0;entryDy=0;entryPerimeter=0;" edge="1" parent="1" source="0VU86SbnEcJsQg7m3qkY-5" target="AmY7bIzJTpSbqmhme9mH-87">
          <mxGeometry relative="1" as="geometry" />
        </mxCell>
        <mxCell id="0VU86SbnEcJsQg7m3qkY-5" value="Existing transaction index" style="rounded=0;whiteSpace=wrap;html=1;" vertex="1" parent="1">
          <mxGeometry x="495" y="670" width="650" height="70" as="geometry" />
        </mxCell>
        <mxCell id="0VU86SbnEcJsQg7m3qkY-16" value="" style="endArrow=none;html=1;rounded=0;exitX=0;exitY=0;exitDx=0;exitDy=0;entryX=0;entryY=0;entryDx=0;entryDy=0;" edge="1" parent="1" source="0VU86SbnEcJsQg7m3qkY-2" target="AmY7bIzJTpSbqmhme9mH-7">
          <mxGeometry width="50" height="50" relative="1" as="geometry">
            <mxPoint x="900" y="290" as="sourcePoint" />
            <mxPoint x="950" y="240" as="targetPoint" />
          </mxGeometry>
        </mxCell>
        <mxCell id="0VU86SbnEcJsQg7m3qkY-19" value="" style="endArrow=none;html=1;rounded=0;exitX=0;exitY=0.341;exitDx=0;exitDy=0;exitPerimeter=0;dashed=1;" edge="1" parent="1" source="0VU86SbnEcJsQg7m3qkY-2">
          <mxGeometry width="50" height="50" relative="1" as="geometry">
            <mxPoint x="680" y="270" as="sourcePoint" />
            <mxPoint x="1180" y="418" as="targetPoint" />
          </mxGeometry>
        </mxCell>
        <mxCell id="0VU86SbnEcJsQg7m3qkY-20" value="" style="endArrow=none;html=1;rounded=0;entryX=1;entryY=0;entryDx=0;entryDy=0;exitX=1;exitY=0;exitDx=0;exitDy=0;" edge="1" parent="1" source="0VU86SbnEcJsQg7m3qkY-2" target="AmY7bIzJTpSbqmhme9mH-7">
          <mxGeometry width="50" height="50" relative="1" as="geometry">
            <mxPoint x="680" y="360" as="sourcePoint" />
            <mxPoint x="730" y="310" as="targetPoint" />
          </mxGeometry>
        </mxCell>
      </root>
    </mxGraphModel>
  </diagram>
</mxfile>
